<svg xmlns="http://www.w3.org/2000/svg" width="494" height="494">
<circle r="247" cx="247" cy="247" fill="#16A753"/>
<path d="m203.7 129.7c13.2-7.2 28.4-9.9 43.3-9.5 17.7-0.3 35.7 3.6 50.8 13 12.7 7.9 23.3 19.4 28.9 33.4 3.6 9 5.3 18.8 5.1 28.5 0.1 9.8-0.4 19.7-2.6 29.3-1.7 7.6-6.3 14-10.9 20.1-10.7 13.8-23.7 25.8-37.8 36.1-11.1 8.2-22 16.5-32.9 25-8.6 6.7-16.1 15-21 24.8h105.3v43.8h-169.7c1.3-21.2 4.7-43.2 16.2-61.5 3.7-5.9 8.4-11 13.9-15.2 14-10.7 27.9-21.5 41.9-32.2 11-8.6 22.6-16.6 31.6-27.4 9-10.5 15.7-23.6 15.8-37.7 0.3-10.7-3.2-21.8-10.9-29.5-6-6.4-14.7-10-23.5-9.7-9.7-0.4-19.9 3.5-25.5 11.7-7.9 11.4-8.4 25.9-8.2 39.3h-47.4c-0.6-17.6 1.2-35.8 9-51.8 5.9-13 16.1-23.8 28.6-30.5z" fill="#FDFEFE"/>
</svg>